<?xml version="1.0" encoding="utf-8"?>
<!-- Generator: Adobe Illustrator 28.0.0, SVG Export Plug-In . SVG Version: 6.00 Build 0)  -->
<svg version="1.1" id="Capa_1" xmlns="http://www.w3.org/2000/svg" xmlns:xlink="http://www.w3.org/1999/xlink" x="0px" y="0px"
	 viewBox="0 0 166 166" style="enable-background:new 0 0 166 166;" xml:space="preserve">
<style type="text/css">
	.st0{fill:#049D46;}
	.st1{fill:#FEFEFE;}
</style>
<g>
	<path class="st0" d="M18.9,120.6c-0.8-10,3.7-19.1,9.2-27.7c8.1-12.4,18.4-22.7,31.3-30.1c8.1-4.6,16.6-7.4,26.1-6.5
		c5.6,0.5,10.9,2.2,16,4.7c16.3,8,28.7,20.1,38.3,35.3c3.1,4.9,5.6,10.1,6.8,15.8c1.2,5.7,0.8,11.4-0.3,17
		c-1.6,8.2-4.9,15.7-10.6,22c-6.6,7.2-14.7,11-24.5,10.8c-2.2-0.1-4.1-1.3-5.9-2.5c-4.1-2.7-7.7-6.1-11.8-8.9
		c-7.1-5-14.2-5.3-21.7-0.9c-4.7,2.8-9.4,5.6-13.8,8.7c-8,5.6-15.8,4.2-23.6,0.1c-6-3.1-9.5-8.4-11.7-14.6
		C20,136.4,18.9,129.1,18.9,120.6z M109.2,99.8c0,2,0.3,4.3-0.5,6.5c-0.9,2.1-1.9,2.6-4,1.7c-2.2-1-4.4-2-6.4-3.3
		c-4.6-2.8-8.4-6-7.3-12.2c0.1-0.3,0.1-0.7-0.3-0.8c-0.4-0.1-0.6,0.2-0.7,0.5c-0.3,0.7-0.7,1.5-0.9,2.3c-2.7,8.6-5.3,17.3-9.6,25.3
		c-0.3,0.6-0.2,1.1,0.2,1.6c3.7,5.4,6.4,11.4,8,17.7c0.2,0.9,0.7,1.3,1.5,0.9c4.6-2,9.3-4,13.5-6.8c1.1-0.7,1.3-1.4,0.7-2.7
		c-1.4-2.5-1.1-5,0.1-7.5c1.6-3.2,4-5.8,6.3-8.5c1.9-2.2,4.3-3,7.1-3.1c1.4-0.1,2.8,0,4.2-0.1c4.4-0.5,7-3.2,7.3-7.6
		c0.1-1.8,0-3.7,0-5.5c0-4.3-0.4-4.7-4.7-4.4c-0.2,0-0.4,0-0.6,0c-3.6,0.4-5.4-0.5-6.6-3.9c-1.4-4.2-4.4-5.8-8.4-6.3
		c-2.1-0.3-4.3-0.3-6.4,0.3c-0.6,0.2-1.5,0-1.5,0.8c0,0.8,0.8,0.8,1.4,1c4.2,1.6,7.2,4.2,7.5,9C109,96.4,109.1,98,109.2,99.8z
		 M46.4,146.7c0,0.4-0.1,0.9,0.2,1.2c0.5,0.4,0.9-0.1,1.4-0.3c4.9-3,9.7-6.3,14.2-9.8c5.7-4.5,10.8-9.5,14.5-15.8
		c0.5-0.8,0.8-1.5,0.1-2.4c-2.9-3.7-5.9-7.2-9.4-10.4c-3.9-3.6-7.9-7.1-9.6-12.4c-0.6-1.8-1.5-3.5-2.3-5.2C55.2,90.8,55,90,54,90
		c-0.9,0-1.2,0.9-1.4,1.6c-0.5,1.6-1,3.1-1.5,4.7c-0.3,1.2-1.1,1.5-2.3,1.5c-1.8,0-3.1-0.7-4.2-2.1c-0.3-0.4-0.7-0.7-1.3-0.6
		c-0.7,0.2-0.5,0.8-0.5,1.2c0,1.4-0.5,2.4-1.5,3.3c-1.3,1.2-2.7,2.5-2.9,4.3c-0.2,1.9-0.9,3.1-2.4,4.3c-1.1,0.8-2.1,1.8-1.6,3.5
		c1,3.4,3,5,6.6,5.2c4.1,0.3,7.7,2,10.7,4.8c1.5,1.4,2.1,3.2,1.2,5.2c-0.7,1.7-1.5,3.3-2.2,5C48.7,136.6,47,141.5,46.4,146.7z
		 M82.7,140c3.9,0.3,4,0.1,2.9-3.3c-1.5-4.6-3.5-9-6-13.1c-1.1-1.8-1.5-1.8-2.6-0.1c-4,6.2-9.3,11.3-15.2,15.8
		c-4.6,3.6-9.5,6.7-14.4,9.9c-1.4,0.9-2.2,3.7-1.4,5.2c0.8,1.5,2.3,1,3.6,1c0.4,0,0.9-0.2,1.3-0.3c2.4-0.7,4.5-1.9,6.6-3.2
		c4.7-2.9,9.2-6.2,14.2-8.8C75.3,141.4,78.9,139.6,82.7,140z M113.2,153C113.2,153.4,113.2,153.2,113.2,153
		c-0.7-7.1-4.2-13.1-8-18.9c-0.5-0.7-1-0.5-1.6-0.1c-4,2.5-8.2,4.5-12.5,6.4c-0.5,0.2-1,0.4-1,1c0,0.6,0.5,0.8,0.9,1
		c3.9,2.1,7.2,4.9,10.6,7.6c2.7,2.2,5.4,4.5,9,5.4C112.7,155.9,113.2,155.5,113.2,153z M98.3,86.3c-0.7,0-1.4,0-2.1,0.5
		c-4.9,3-5.7,9.7-1.7,13.7c2.9,3,6.6,4.6,10.3,6.3c1.9,0.8,2.8,0.1,3.2-2.1c0.5-3-0.2-5.9-0.1-8.9C108.1,90.2,102.4,86.4,98.3,86.3z
		"/>
	<path class="st0" d="M163,58.3c0,11.9-9.4,21.3-21.2,21.2c-11.8-0.1-21.1-9.6-21.2-21.3c-0.1-12.1,10.2-21.9,22.3-21.3
		C153.6,37.4,163.5,46.5,163,58.3z"/>
	<path class="st0" d="M127.9,25.5c0.3,10.8-8.8,21.5-21.8,21.3C94.8,46.6,85,36.9,85.3,25.3C85.6,12.9,95,4.2,106.6,4.2
		C118.6,4.1,127.9,13.5,127.9,25.5z"/>
	<path class="st0" d="M81.3,25.9c-0.2,11.9-10.2,21.6-22.5,20.9c-11-0.6-20.7-9.8-20-22.6c0.6-11,9.7-20.1,21.4-20
		C72.3,4.3,81.6,13.9,81.3,25.9z"/>
	<path class="st0" d="M45.7,58.1c0.1,11.5-9.5,21.3-21,21.4C13.1,79.6,3.3,70.2,3,59.2c-0.4-12.4,9.3-21.9,20.4-22.3
		C35.8,36.4,45.6,46.2,45.7,58.1z"/>
	<path class="st1" d="M109.2,99.8c-0.1-1.9-0.2-3.4-0.3-5c-0.3-4.8-3.3-7.4-7.5-9c-0.6-0.2-1.5-0.2-1.4-1c0-0.8,1-0.6,1.5-0.8
		c2.1-0.6,4.3-0.6,6.4-0.3c4,0.5,7,2.1,8.4,6.3c1.1,3.5,2.9,4.3,6.6,3.9c0.2,0,0.4,0,0.6,0c4.3-0.3,4.7,0.1,4.7,4.4
		c0,1.8,0.1,3.7,0,5.5c-0.2,4.3-2.9,7.1-7.3,7.6c-1.4,0.1-2.8,0.1-4.2,0.1c-2.8,0.1-5.2,1-7.1,3.1c-2.3,2.7-4.7,5.3-6.3,8.5
		c-1.2,2.5-1.5,5-0.1,7.5c0.7,1.2,0.5,1.9-0.7,2.7c-4.3,2.8-8.9,4.8-13.5,6.8c-0.8,0.4-1.3,0-1.5-0.9c-1.6-6.4-4.3-12.3-8-17.7
		c-0.3-0.5-0.5-0.9-0.2-1.6c4.4-8,6.9-16.7,9.6-25.3c0.2-0.8,0.6-1.5,0.9-2.3c0.1-0.3,0.3-0.6,0.7-0.5c0.4,0.1,0.4,0.5,0.3,0.8
		c-1.1,6.2,2.7,9.4,7.3,12.2c2.1,1.3,4.2,2.3,6.4,3.3c2.1,0.9,3.1,0.4,4-1.7C109.5,104.1,109.2,101.8,109.2,99.8z"/>
	<path class="st1" d="M46.4,146.7c0.7-5.2,2.4-10,4.5-14.7c0.7-1.7,1.6-3.3,2.2-5c0.8-2,0.3-3.7-1.2-5.2c-3-2.8-6.6-4.5-10.7-4.8
		c-3.6-0.3-5.6-1.8-6.6-5.2c-0.5-1.7,0.6-2.7,1.6-3.5c1.4-1.1,2.2-2.4,2.4-4.3c0.2-1.9,1.6-3.1,2.9-4.3c1-0.9,1.5-2,1.5-3.3
		c0-0.5-0.2-1.1,0.5-1.2c0.5-0.1,1,0.2,1.3,0.6c1,1.4,2.3,2.2,4.2,2.1c1.2,0,1.9-0.3,2.3-1.5c0.4-1.6,0.9-3.1,1.5-4.7
		c0.2-0.7,0.5-1.6,1.4-1.6c0.9,0,1.2,0.9,1.5,1.5c0.8,1.7,1.7,3.4,2.3,5.2c1.7,5.3,5.7,8.8,9.6,12.4c3.5,3.2,6.5,6.7,9.4,10.4
		c0.7,0.9,0.4,1.6-0.1,2.4c-3.7,6.3-8.9,11.4-14.5,15.8c-4.5,3.6-9.3,6.8-14.2,9.8c-0.4,0.3-0.9,0.7-1.4,0.3
		C46.2,147.6,46.4,147,46.4,146.7z"/>
	<path class="st1" d="M82.7,140c-3.9-0.4-7.5,1.3-11,3.2c-4.9,2.6-9.4,5.9-14.2,8.8c-2.1,1.3-4.2,2.6-6.6,3.2
		c-0.4,0.1-0.9,0.3-1.3,0.3c-1.3,0-2.8,0.5-3.6-1c-0.8-1.6-0.1-4.3,1.4-5.2c4.9-3.2,9.8-6.3,14.4-9.9c5.9-4.5,11.1-9.6,15.2-15.8
		c1.1-1.7,1.5-1.7,2.6,0.1c2.5,4.1,4.5,8.5,6,13.1C86.7,140.1,86.6,140.3,82.7,140z"/>
	<path class="st1" d="M113.2,153c0,2.5-0.5,2.9-2.5,2.4c-3.6-0.9-6.3-3.2-9-5.4c-3.4-2.7-6.7-5.5-10.6-7.6c-0.4-0.2-1-0.4-0.9-1
		c0-0.6,0.6-0.8,1-1c4.3-1.9,8.5-3.9,12.5-6.4c0.6-0.4,1.1-0.6,1.6,0.1C109,139.9,112.5,145.9,113.2,153
		C113.2,153.2,113.2,153.4,113.2,153z"/>
	<path class="st1" d="M98.3,86.3c4.1,0.2,9.8,3.9,9.5,9.5c-0.2,3,0.5,5.9,0.1,8.9c-0.3,2.2-1.3,3-3.2,2.1c-3.7-1.7-7.4-3.3-10.3-6.3
		c-4-4.1-3.2-10.7,1.7-13.7C96.9,86.3,97.6,86.3,98.3,86.3z"/>
</g>
</svg>
