<?xml version="1.0" encoding="utf-8"?>
<!-- Generator: Adobe Illustrator 28.0.0, SVG Export Plug-In . SVG Version: 6.00 Build 0)  -->
<svg version="1.1" id="Capa_1" xmlns="http://www.w3.org/2000/svg" xmlns:xlink="http://www.w3.org/1999/xlink" x="0px" y="0px"
	 viewBox="0 0 492 500" style="enable-background:new 0 0 492 500;" xml:space="preserve">
<style type="text/css">
	.st0{fill:#049D46;}
	.st1{fill:#FEFEFE;}
</style>
<g>
	<path class="st0" d="M61,358.5c-2.4-28.9,10.6-55.1,26.6-79.9c23.3-35.8,53-65.5,90.3-86.9c23.3-13.3,48-21.5,75.3-18.8
		c16.2,1.6,31.4,6.4,46,13.5c47,23,82.9,57.9,110.6,101.8c8.9,14.1,16,29.1,19.6,45.5c3.6,16.4,2.4,32.8-0.8,49
		c-4.6,23.8-14.2,45.3-30.7,63.3c-19,20.8-42.4,31.8-70.8,31.1c-6.5-0.2-11.8-3.7-16.9-7.1c-11.9-7.9-22.3-17.7-34-25.8
		c-20.5-14.3-40.9-15.3-62.6-2.6c-13.6,8-27.1,16-39.8,25.1c-23,16.3-45.6,12-68.2,0.4c-17.3-8.8-27.4-24.3-33.9-42.1
		C64.2,404.1,61,382.9,61,358.5z M321.5,298.5c0,5.7,1,12.3-1.6,18.7c-2.5,6.2-5.5,7.5-11.5,4.9c-6.4-2.8-12.6-5.8-18.6-9.4
		c-13.3-8.1-24.3-17.4-21.1-35.3c0.2-0.9,0.2-1.9-0.9-2.2c-1.1-0.3-1.7,0.5-2.1,1.4c-0.9,2.2-2,4.4-2.7,6.6
		c-7.8,24.9-15.2,50-27.8,73c-0.9,1.8-0.5,3.1,0.5,4.5c10.6,15.7,18.4,32.7,23,51.2c0.6,2.5,1.9,3.6,4.2,2.7
		c13.4-5.8,26.9-11.5,39.1-19.6c3.2-2.1,3.9-4.2,1.9-7.7c-4-7.1-3.3-14.3,0.3-21.5c4.6-9.3,11.5-16.8,18.2-24.5
		c5.5-6.3,12.4-8.7,20.3-9.1c4-0.2,8.1,0,12-0.4c12.6-1.3,20.3-9.3,21-21.9c0.3-5.3,0.1-10.6,0.1-15.9c0-12.4-1.1-13.5-13.4-12.8
		c-0.5,0-1.1,0.1-1.6,0.1c-10.4,1.1-15.7-1.3-18.9-11.3c-4-12.2-12.8-16.8-24.2-18.2c-6.2-0.8-12.4-0.9-18.5,0.9
		c-1.7,0.4-4.3,0-4.4,2.3c-0.1,2.2,2.4,2.3,4,3c12.2,4.5,20.8,12,21.7,26C321,288.6,321.2,293.2,321.5,298.5z M140.3,433.7
		c0,1.1-0.4,2.7,0.7,3.5c1.5,1.1,2.7-0.2,4-0.9c14.1-8.8,27.9-18.1,40.9-28.3c16.4-12.9,31.2-27.4,42-45.6c1.4-2.4,2.2-4.3,0.2-6.9
		c-8.3-10.7-17.1-20.9-27.1-30.1c-11.2-10.3-22.8-20.4-27.7-35.8c-1.6-5.2-4.3-10.1-6.6-15c-0.9-1.9-1.6-4.4-4.3-4.4
		s-3.4,2.5-4.1,4.5c-1.5,4.5-3,9-4.2,13.6c-0.9,3.5-3.2,4.2-6.5,4.3c-5.3,0.1-9-2.1-12-6.2c-0.9-1.2-2.2-2.1-3.8-1.8
		c-2.1,0.4-1.4,2.2-1.3,3.6c0.1,3.9-1.3,7-4.2,9.7c-3.8,3.5-7.8,7.2-8.3,12.5c-0.5,5.4-2.7,9.1-6.9,12.3c-3.1,2.4-6.2,5.3-4.7,10.2
		c2.9,9.9,8.5,14.4,19,15.1c11.9,0.9,22.1,5.7,30.8,13.8c4.4,4.1,5.9,9.2,3.5,15c-2,4.9-4.3,9.7-6.5,14.5
		C147.2,404.8,142.2,418.7,140.3,433.7z M245.3,414.6c11.1,0.8,11.4,0.2,8.3-9.4c-4.3-13.3-10-25.8-17.3-37.7
		c-3.1-5.1-4.2-5.1-7.4-0.2c-11.7,18-26.9,32.6-43.8,45.6c-13.3,10.3-27.5,19.3-41.6,28.5c-4.1,2.7-6.2,10.6-4,15.1
		c2.2,4.4,6.6,2.8,10.3,2.9c1.2,0,2.5-0.5,3.7-0.8c7-1.9,13.1-5.6,19.1-9.3c13.7-8.4,26.7-17.9,40.9-25.4
		C223.7,418.4,234.1,413.4,245.3,414.6z M333,452c0,1,0,0.6,0,0.3c-1.9-20.7-12.1-38-23.1-54.9c-1.4-2.2-2.9-1.4-4.6-0.3
		c-11.4,7.3-23.5,13.1-35.9,18.5c-1.3,0.6-2.9,1-3,2.8c-0.1,1.8,1.5,2.3,2.7,3c11.2,6,20.8,14.1,30.6,21.9
		c7.9,6.3,15.7,13.1,26,15.6C331.7,460.3,333.1,459.3,333,452z M290.2,259.5c-1.9,0.1-4.1,0.1-6.1,1.3c-14.1,8.8-16.4,27.9-5,39.6
		c8.4,8.6,19,13.3,29.6,18.2c5.3,2.4,8.2,0.2,9.2-6.1c1.3-8.6-0.7-17.1-0.2-25.6C318.5,270.7,302.1,259.9,290.2,259.5z"/>
	<path class="st0" d="M476.7,178.8c-0.1,34.3-27.2,61.3-61.3,61.1c-33.9-0.2-60.9-27.6-61.2-61.5c-0.3-34.9,29.3-63.2,64.3-61.6
		C449.7,118.3,478.3,144.7,476.7,178.8z"/>
	<path class="st0" d="M375.5,84.1c0.9,31.3-25.5,61.9-62.8,61.4c-32.7-0.5-61-28.4-60.1-62.1c0.9-35.5,28.1-60.7,61.4-60.8
		C348.8,22.5,375.5,49.6,375.5,84.1z"/>
	<path class="st0" d="M241.2,85.2c-0.4,34.4-29.4,62.3-65,60.2c-31.7-1.8-59.7-28.4-57.7-65.2c1.8-31.8,27.9-57.9,61.7-57.6
		C215,22.8,241.9,50.8,241.2,85.2z"/>
	<path class="st0" d="M138.3,178.2c0.3,33.3-27.4,61.5-60.6,61.7c-33.4,0.2-61.5-26.8-62.4-58.8c-1.1-35.8,26.9-63.1,58.9-64.3
		C109.9,115.6,138.1,144,138.3,178.2z"/>
	<path class="st1" d="M321.5,298.5c-0.3-5.3-0.5-9.9-0.8-14.5c-0.9-14-9.6-21.4-21.7-26c-1.7-0.6-4.2-0.7-4-3
		c0.1-2.3,2.8-1.8,4.4-2.3c6.1-1.8,12.4-1.6,18.5-0.9c11.4,1.4,20.3,6,24.2,18.2c3.2,10,8.4,12.4,18.9,11.3c0.5,0,1.1-0.1,1.6-0.1
		c12.4-0.8,13.5,0.3,13.4,12.8c0,5.3,0.2,10.6-0.1,15.9c-0.7,12.5-8.4,20.5-21,21.9c-4,0.4-8,0.2-12,0.4c-8,0.3-14.9,2.8-20.3,9.1
		c-6.7,7.7-13.6,15.2-18.2,24.5c-3.5,7.2-4.2,14.4-0.3,21.5c1.9,3.5,1.3,5.6-1.9,7.7c-12.3,8.1-25.7,13.8-39.1,19.6
		c-2.3,1-3.6-0.1-4.2-2.7c-4.5-18.5-12.3-35.4-23-51.2c-1-1.5-1.5-2.7-0.5-4.5c12.6-23.1,20-48.2,27.8-73c0.7-2.2,1.7-4.4,2.7-6.6
		c0.4-0.9,1-1.7,2.1-1.4c1.1,0.3,1.1,1.3,0.9,2.2c-3.2,17.9,7.9,27.2,21.1,35.3c5.9,3.6,12.2,6.6,18.6,9.4c6,2.6,9,1.2,11.5-4.9
		C322.5,310.8,321.5,304.3,321.5,298.5z"/>
	<path class="st1" d="M140.3,433.7c1.9-15,6.9-28.8,12.9-42.4c2.2-4.9,4.5-9.6,6.5-14.5c2.3-5.7,0.9-10.8-3.5-15
		c-8.7-8.1-18.9-13-30.8-13.8c-10.4-0.8-16.1-5.3-19-15.1c-1.4-4.9,1.6-7.8,4.7-10.2c4.2-3.2,6.4-6.9,6.9-12.3
		c0.5-5.3,4.5-9,8.3-12.5c2.9-2.7,4.4-5.7,4.2-9.7c0-1.3-0.7-3.1,1.3-3.6c1.6-0.4,2.9,0.5,3.8,1.8c3,4.1,6.7,6.3,12,6.2
		c3.4-0.1,5.6-0.8,6.5-4.3c1.2-4.6,2.7-9.1,4.2-13.6c0.7-2.1,1.4-4.5,4.1-4.5c2.7,0,3.4,2.5,4.3,4.4c2.3,4.9,4.9,9.8,6.6,15
		c4.9,15.4,16.4,25.5,27.7,35.8c10,9.2,18.8,19.3,27.1,30.1c2,2.6,1.2,4.5-0.2,6.9c-10.8,18.2-25.6,32.7-42,45.6
		c-13,10.3-26.8,19.6-40.9,28.3c-1.2,0.8-2.5,2-4,0.9C139.9,436.3,140.3,434.7,140.3,433.7z"/>
	<path class="st1" d="M245.3,414.6c-11.2-1.2-21.6,3.8-31.8,9.3c-14.2,7.5-27.2,17-40.9,25.4c-6.1,3.7-12.1,7.5-19.1,9.3
		c-1.2,0.3-2.5,0.9-3.7,0.8c-3.6-0.1-8.1,1.5-10.3-2.9c-2.3-4.6-0.2-12.4,4-15.1c14.1-9.2,28.3-18.2,41.6-28.5
		c16.9-13,32.1-27.6,43.8-45.6c3.2-4.9,4.3-4.9,7.4,0.2c7.3,11.9,13.1,24.4,17.3,37.7C256.7,414.8,256.4,415.3,245.3,414.6z"/>
	<path class="st1" d="M333,452c0.1,7.3-1.3,8.4-7.3,6.9c-10.3-2.5-18.1-9.3-26-15.6c-9.8-7.9-19.5-15.9-30.6-21.9
		c-1.3-0.7-2.8-1.2-2.7-3c0.1-1.8,1.7-2.2,3-2.8c12.4-5.4,24.6-11.2,35.9-18.5c1.7-1.1,3.2-1.8,4.6,0.3c11,16.9,21.1,34.2,23.1,54.9
		C333,452.6,333,453,333,452z"/>
	<path class="st1" d="M290.2,259.5c11.9,0.4,28.3,11.2,27.5,27.4c-0.4,8.5,1.6,17,0.2,25.6c-1,6.3-3.8,8.5-9.2,6.1
		c-10.6-4.9-21.3-9.6-29.6-18.2c-11.5-11.7-9.1-30.9,5-39.6C286.1,259.5,288.3,259.5,290.2,259.5z"/>
</g>
</svg>
